# xmcd
#
# Track frame offsets: 
#        182
#        11642
#        22222
#        34535
#        45387
#        58542
#        70005
#        82527
#        94255
#        105485
#        120795
#        131290
#        141935
#        155660
#        168830
#        178180
#        190425
#        202097
#
# Disc length: 2830 seconds
#
# Revision: 6
# Processed by: cddbd v1.5.2PL0 Copyright (c) Steve Scherf et al.
# Submitted via: ExactAudioCopy v1.0b6
#
DISCID=e60b0c12
DTITLE=The R&B Box - The R&B Box: 30 Years of Rhythm and Blues [Goin' Na
DTITLE=tionwide 1956-1961] Disc 4
DYEAR=1994
DGENRE=Rhythm and Blues
TTITLE0=Little Richard - The Girl Can't Help It (1956)
TTITLE1=The Coasters - Young Blood (1957)
TTITLE2=Jackie Wilson - Reet Petite (The Finest Girl You Ever Want to 
TTITLE2=Meet) (1957)
TTITLE3=Thurston Harris and The Sharps - Little Bitty Pretty One (1957)
TTITLE4=The Chantels - Maybe (1957)
TTITLE5=Huey "Piano" Smith and The Clowns - Don't You Just Know It (1958
TTITLE5=)
TTITLE6=Jerry Butler and The Impressions - For Your Precious Love (1958)
TTITLE7=Clyde McPhater - A Lover's Question (1958)
TTITLE8=Wilbert Harrison - Kansas City (1959)
TTITLE9=The Flamingos - I Only Have Eyes for You (1959)
TTITLE10=Dee Clark - Hey Little Girl (1959)
TTITLE11=Carla Thomas - Gee Whiz (Look at His Eyes 1960)
TTITLE12=Etta James - At Last (1960)
TTITLE13=Ben E. King - Spanish Harlem (1960)
TTITLE14=The Pips - Every Beat of My Heart (1960)
TTITLE15=Bobby Bland - I Pity the Fool (1961)
TTITLE16=Ernie K-Doe - Mother-In-Law (1961)
TTITLE17=The Marcels - Blue Moon (1961)
EXTD=YEAR: 1994
EXTT0=
EXTT1=
EXTT2=
EXTT3=
EXTT4=
EXTT5=
EXTT6=
EXTT7=
EXTT8=
EXTT9=
EXTT10=
EXTT11=
EXTT12=
EXTT13=
EXTT14=
EXTT15=
EXTT16=
EXTT17=
PLAYORDER=
